<?xml version="1.0" encoding="UTF-8"?>
<svg width="512px" height="512px" viewBox="0 0 512 512" version="1.1" xmlns="http://www.w3.org/2000/svg" xmlns:xlink="http://www.w3.org/1999/xlink">
    <!-- Generator: Sketch 53.2 (72643) - https://sketchapp.com -->
    <title>Icons / color-pizza</title>
    <desc>Created with Sketch.</desc>
    <g id="Icons-/-color-pizza" stroke="none" stroke-width="1" fill="none" fill-rule="evenodd">
        <path d="M436.9,66 C384.7,45.4 320.3,32 256,32 C191.7,32 128.4,44.1 75.1,65.4 C70.4,67.3 64,71 64,79.2 L73.7,103.3 C76.5,108.2 82.4,111.5 88.8,111.5 C90.6,111.5 93.1,111.2 96.1,110 C145.1,91.1 199.2,80.4 256.1,80.4 C313,80.4 371.3,92 416.1,110 C419.7,111.4 421.7,111.5 423.4,111.5 C430,111.5 435.6,108.2 438.4,103.4 L448.2,79.3 C448,72 443.2,68.5 436.9,66 L436.9,66 Z" id="Path" fill="#C49B83" fill-rule="nonzero"></path>
        <path d="M407.2,130.4 C360.7,111.5 309.8,102 256,102 C202.1,102 147.7,112.3 104.8,130 C96.7,133.3 89.5,139 94.7,149.5 C99.9,160 255.9,480 255.9,480 L416.9,150.1 C420.1,143.2 417.8,134.7 407.2,130.4 Z" id="Path" fill="#FCCC33" fill-rule="nonzero"></path>
        <path d="M186.2,204 C167.5,204 154.2,189.7 154.2,172 C154.2,154.3 167.5,140 186.2,140 C204.9,140 218.2,154.3 218.2,172 C218.2,189.7 204.9,204 186.2,204 Z" id="Path" fill="#D94B58" fill-rule="nonzero"></path>
        <path d="M256,347 C237.3,347 224,332.7 224,315 C224,297.3 237.3,283 256,283 C274.7,283 288,297.3 288,315 C288,332.7 274.7,347 256,347 Z" id="Path" fill="#FFF09A" fill-rule="nonzero"></path>
        <path d="M325.8,224 C307.1,224 293.8,209.7 293.8,192 C293.8,174.3 307.1,160 325.8,160 C344.5,160 357.8,174.3 357.8,192 C357.8,209.7 344.5,224 325.8,224 Z" id="Path" fill="#D94B58" fill-rule="nonzero"></path>
    </g>
</svg>