<?xml version="1.0" encoding="UTF-8"?>
<svg width="512px" height="512px" viewBox="0 0 512 512" version="1.1" xmlns="http://www.w3.org/2000/svg" xmlns:xlink="http://www.w3.org/1999/xlink">
    <!-- Generator: Sketch 53.2 (72643) - https://sketchapp.com -->
    <title>Icons / color-dessert</title>
    <desc>Created with Sketch.</desc>
    <g id="Icons-/-color-dessert" stroke="none" stroke-width="1" fill="none" fill-rule="evenodd">
        <path d="M173,253 L192.308594,241.273559 C213.826623,256.780965 235.423734,264.534668 257.099927,264.534668 C278.77612,264.534668 300.366021,256.780965 321.869629,241.273559 L343,253 L281.724854,440.138672 L233.275,440.138672 L173,253 Z" id="Rectangle" fill="#FFD07F"></path>
        <path d="M221.8,406.1 L226.6,420.9 C227,422.1 228.5,422.7 229.6,422 L236.4,417.8 C238.9,416.2 238.9,412.6 236.4,411 L224.9,403.8 C223.2,402.8 221.3,404.3 221.8,406.1 L221.8,406.1 Z M287.6,421 L292.5,405.8 C293.1,404 291.1,402.5 289.5,403.5 L277.6,410.9 C276.432777,411.636331 275.724854,412.91993 275.724854,414.3 C275.724854,415.68007 276.432777,416.963669 277.6,417.7 L284.6,422.1 C285.8,422.8 287.2,422.2 287.6,421 L287.6,421 Z M189.6,242.2 C185.7,245.7 180,248.6 173.9,250.7 C172.9,251.1 172.3,252.2 172.7,253.2 L182,282.1 L185.8,293.9 C186.2,295.1 187.7,295.7 188.8,295 L195.8,290.7 L232.4,268.2 C235.4,266.3 234.7,261.7 231.2,260.9 C216.9,257.6 204.7,251.1 195,242.4 C193.4,241 191.1,240.9 189.6,242.2 L189.6,242.2 Z M193.6,310.8 L191.6,312 L206.2,357.3 C206.6,358.5 208.1,359.1 209.2,358.4 L236.4,341.5 C238.9,339.9 238.9,336.3 236.4,334.7 L197.9,310.8 C196.5,310 194.9,310 193.6,310.8 L193.6,310.8 Z M259.1,348.9 C257.8,348.1 256.2,348.1 254.9,348.9 L213,374.5 L212.9,374.6 C211.9,375.4 211.9,377 212.9,377.8 L213.6,378.3 L254.9,403.6 C256.2,404.4 257.8,404.4 259.1,403.6 L300.8,378.1 L301.2,377.8 C302.2,377 302.2,375.6 301.2,374.8 L259.1,348.9 L259.1,348.9 Z M297.7,296.6 L259.2,272.7 C257.9,271.9 256.3,271.9 255,272.7 L216.5,296.6 C215.332777,297.336331 214.624854,298.61993 214.624854,300 C214.624854,301.38007 215.332777,302.663669 216.5,303.4 L255,327.3 C256.3,328.1 257.9,328.1 259.2,327.3 L297.7,303.4 C300.2,301.9 300.2,298.2 297.7,296.6 Z M319.1,242.3 C309.4,251 297.1,257.4 282.9,260.8 C279.4,261.6 278.7,266.2 281.7,268.1 L318.3,290.6 L325.7,295.2 C326.8,295.9 328.3,295.4 328.7,294.1 L332.7,281.7 L342.5,251.4 C335.6,249.3 328.9,246.1 324.5,242.2 C322.9,240.9 320.6,241 319.1,242.3 L319.1,242.3 Z M233.4,442 L235,447 C235,447 242.5,466 257,466 C272,466 279.2,447 279.2,447 L280.8,442.2 C281.4,440.5 280.7,438.5 279.1,437.6 L259.1,425.2 C257.8,424.4 256.2,424.4 254.9,425.2 L235.1,437.5 C233.5,438.3 232.8,440.2 233.4,442 L233.4,442 Z M277.7,341.5 L305.2,358.6 C306.3,359.3 307.8,358.8 308.2,357.5 L322.4,313.7 C322.7,312.8 322.3,311.9 321.6,311.4 L320.6,310.8 C319.3,310 317.7,310 316.4,310.8 L277.9,334.7 C275.1,336.3 275.1,340 277.7,341.5 L277.7,341.5 Z" id="Shape" fill="#E68109" fill-rule="nonzero"></path>
        <path d="M377.1,168.2 C370.9,173.6 363.9,176.9 359.1,178.7 C357.3,179.4 355.6,177.3 356.8,175.7 L360.8,170 C366.9,161.3 369.3,150.6 367.6,140.2 C358.9,86.8 312.7,46 257,46 C201.3,46 155.1,87.2 146.4,140.7 C144.7,151.2 147.2,161.9 153.3,170.5 L157.3,176.1 C158.5,177.7 156.8,179.9 154.9,179.1 C149.5,177 141.4,172.9 134.8,166.3 C133.4,164.9 131.2,164.8 129.6,165.9 C119.4,173.2 112.8,185 112.8,198.4 C112.8,220.5 130.7,238.4 152.8,238.4 C164.1,238.4 180.8,233.7 189.4,226.1 C190.9,224.8 193.2,224.8 194.7,226.2 C209.9,239.6 231.3,246.4 256.8,246.4 C282.3,246.4 303.8,239.6 318.9,226.2 C320.4,224.9 322.7,224.8 324.2,226.1 C332.7,233.7 349.5,238.4 360.8,238.4 C382.9,238.4 400.8,220.4 400.8,198.3 C400.8,186.4 395.6,175.7 387.3,168.3 C384.6,165.7 380.1,165.6 377.1,168.2 Z" id="Path" fill="#BC6491" fill-rule="nonzero"></path>
    </g>
</svg>