<?xml version="1.0" encoding="UTF-8"?>
<svg width="512px" height="512px" viewBox="0 0 512 512" version="1.1" xmlns="http://www.w3.org/2000/svg" xmlns:xlink="http://www.w3.org/1999/xlink">
    <!-- Generator: Sketch 53.2 (72643) - https://sketchapp.com -->
    <title>Icons / color-street-food</title>
    <desc>Created with Sketch.</desc>
    <g id="Icons-/-color-street-food" stroke="none" stroke-width="1" fill="none" fill-rule="evenodd">
        <path d="M436,336 L436,336 C436,375.764502 403.764502,408 364,408 L148,408 C108.235498,408 76,375.764502 76,336 L76,336 L436,336 Z" id="Path" fill="#E68109" fill-rule="nonzero"></path>
        <path d="M112,238 L300,238 L336,274 L372,238 L400,238 C419.882251,238 436,254.117749 436,274 L436,274 C436,293.882251 419.882251,310 400,310 L112,310 C92.117749,310 76,293.882251 76,274 L76,274 C76,254.117749 92.117749,238 112,238 Z" id="Path" fill="#8D4547" fill-rule="nonzero"></path>
        <path d="M436,212 L436,212 L76,212 L76,212 C76,152.353247 124.353247,104 184,104 L328,104 C387.646753,104 436,152.353247 436,212 Z" id="Path" fill="#F7A516" fill-rule="nonzero"></path>
    </g>
</svg>